<svg viewBox="0 0 1804 688" xmlns="http://www.w3.org/2000/svg">
  <path fill="#0F2538" d="M684.3188,344.1553 C684.3188,530.5453 533.2178,681.6393 346.8348,681.6393 C160.4518,681.6393 9.3508,530.5453 9.3508,344.1553 C9.3508,157.7663 160.4518,6.6773 346.8348,6.6773 C533.2178,6.6773 684.3188,157.7663 684.3188,344.1553"></path>
  <path fill="#FFFFFF" d="M278.1138,269.7666 C264.6288,269.7666 252.5218,273.1146 241.7678,279.8346 C231.0018,286.5486 222.6708,295.5286 216.7678,306.7916 C210.8598,318.0486 207.8958,330.2816 207.8958,343.4706 C207.8958,357.1196 210.9168,369.6916 216.9448,381.1816 C222.9668,392.6716 231.3608,401.7706 242.1138,408.4786 C252.8678,415.1926 264.9878,418.5526 278.4598,418.5526 C291.9448,418.5526 304.1078,414.9096 314.9878,407.6216 C325.8608,400.3486 334.7198,389.7646 341.5798,375.8896 L411.7838,375.8896 C406.3478,395.9126 397.1298,413.3736 384.1348,428.2746 C371.1228,443.1816 355.5238,454.7276 337.3198,462.9086 C319.1218,471.1076 299.7408,475.1916 279.1708,475.1916 C260.5008,475.1916 242.8248,472.0066 226.1698,465.6326 C209.5008,459.2776 194.5368,449.8266 181.2978,437.3236 C167.3538,424.3476 157.1218,409.8496 150.6348,393.8106 C144.1348,377.7706 140.8748,359.9696 140.8748,340.4066 C140.8748,318.3316 146.9158,297.5166 158.9598,277.9546 C171.0218,258.3906 187.4578,242.6906 208.2478,230.8676 C229.0578,219.0376 251.6288,213.1216 275.9868,213.1216 C294.1908,213.1216 310.7338,215.6266 325.6278,220.6226 C340.5158,225.6316 354.4668,233.4786 367.4598,244.1816 C392.5168,264.8706 407.2918,288.0786 411.7838,313.7956 L341.5798,313.7956 C335.9098,300.1406 327.3398,289.3936 315.8808,281.5346 C304.4038,273.6936 291.8118,269.7666 278.1138,269.7666"></path>
  <path fill="#FFFFFF" d="M617.3047,344.4932 C617.3047,331.2982 614.2337,318.9582 608.0797,307.4692 C601.9317,295.9842 593.4187,286.8292 582.5517,280.0022 C571.6717,273.1802 559.3757,269.7702 545.6777,269.7702 C531.9597,269.7702 519.7277,273.1182 508.9737,279.8382 C498.2137,286.5462 489.7627,295.5312 483.6147,306.7822 C477.4727,318.0522 474.4027,330.2852 474.4027,343.4732 C474.4027,357.3542 477.4727,369.9772 483.6147,381.3482 C489.7627,392.7242 498.3397,401.7672 509.3317,408.4812 C520.3187,415.1952 532.7907,418.5492 546.7347,418.5492 C560.2127,418.5492 572.3197,415.1952 583.0927,408.4812 C593.8407,401.7672 602.2347,392.7882 608.2627,381.5242 C614.2837,370.2672 617.3047,357.9152 617.3047,344.4932 M617.3047,344.4932 C617.3047,331.2982 614.2337,318.9582 608.0797,307.4692 C601.9317,295.9842 593.4187,286.8292 582.5517,280.0022 C571.6717,273.1802 559.3757,269.7702 545.6777,269.7702 C531.9597,269.7702 519.7277,273.1182 508.9737,279.8382 C498.2137,286.5462 489.7627,295.5312 483.6147,306.7822 C477.4727,318.0522 474.4027,330.2852 474.4027,343.4732 C474.4027,357.3542 477.4727,369.9772 483.6147,381.3482 C489.7627,392.7242 498.3397,401.7672 509.3317,408.4812 C520.3187,415.1952 532.7907,418.5492 546.7347,418.5492 C560.2127,418.5492 572.3197,415.1952 583.0927,408.4812 C593.8407,401.7672 602.2347,392.7882 608.2627,381.5242 C614.2837,370.2672 617.3047,357.9152 617.3047,344.4932 M407.3687,349.9552 C407.3687,324.2502 413.3467,300.9872 425.2837,280.1722 C437.2207,259.3622 453.7067,242.9762 474.7547,231.0342 C495.7967,219.0842 519.4317,213.1122 545.6777,213.1122 C570.7277,213.1122 593.9027,218.8642 615.1717,230.3472 C636.4527,241.8442 653.2977,257.4812 665.7007,277.2702 C678.1157,297.0602 684.3197,318.7882 684.3197,342.4542 C684.3197,367.0142 678.2917,389.4282 666.2347,409.6772 C654.1787,429.9322 637.7997,445.9092 617.1217,457.6192 C596.4387,469.3362 573.6977,475.1942 548.8617,475.1942 C524.2707,475.1942 501.1707,469.9022 479.5367,459.3242 C457.9167,448.7472 440.4737,433.9032 427.2407,414.7992 C414.0007,395.6822 407.3687,374.0742 407.3687,349.9552"></path>
  <path fill="#CD202C" d="M617.3047,344.4932 C617.3047,331.2982 614.2337,318.9582 608.0797,307.4692 C601.9317,295.9842 593.4187,286.8292 582.5517,280.0022 C571.6717,273.1802 559.3757,269.7702 545.6777,269.7702 C531.9597,269.7702 519.7277,273.1182 508.9737,279.8382 C498.2137,286.5462 489.7627,295.5312 483.6147,306.7822 C477.4727,318.0522 474.4027,330.2852 474.4027,343.4732 C474.4027,357.3542 477.4727,369.9772 483.6147,381.3482 C489.7627,392.7242 498.3397,401.7672 509.3317,408.4812 C520.3187,415.1952 532.7907,418.5492 546.7347,418.5492 C560.2127,418.5492 572.3197,415.1952 583.0927,408.4812 C593.8407,401.7672 602.2347,392.7882 608.2627,381.5242 C614.2837,370.2672 617.3047,357.9152 617.3047,344.4932"></path>
  <polygon fill="#CD202C" points="881.748 217.9004 881.748 274.5324 786.379 274.5324 786.379 317.5414 878.337 317.5414 878.337 374.1794 786.379 374.1794 786.379 470.4174 708.963 470.4174 708.963 217.9004"></polygon>
  <polygon fill="#CD202C" points="1083.7617 217.9004 1083.7617 274.5324 985.3917 274.5324 985.3917 313.7914 1080.7667 313.7914 1080.7667 370.4354 985.3917 370.4354 985.3917 413.7654 1083.7617 413.7654 1083.7617 470.4174 907.9757 470.4174 907.9757 217.9004"></polygon>
  <polygon fill="#CD202C" points="1180.374 470.416 1109.948 470.416 1109.948 217.894 1173.377 217.894 1285.433 377.603 1282.318 217.894 1352.743 217.894 1352.743 470.416 1288.925 470.416 1178.442 316.175"></polygon>
  <path fill="#CD202C" d="M1484.2031,266.8232 C1476.5081,266.8232 1469.9371,268.7612 1464.5201,272.6192 C1459.1021,276.5012 1456.3961,281.1572 1456.3961,286.6132 C1456.3961,293.6742 1460.0971,299.3682 1467.5031,303.6782 C1474.9281,308.0082 1488.4701,313.5762 1508.1341,320.4032 C1531.2451,328.3642 1549.0541,336.1032 1561.6001,343.6042 C1574.1541,351.1112 1582.9191,359.0842 1587.9031,367.4972 C1592.8921,375.9102 1595.3851,385.9212 1595.3851,397.5242 C1595.3851,421.8762 1585.5561,440.8542 1565.8861,454.5152 C1546.2031,468.1632 1519.2711,474.9782 1485.0401,474.9782 C1449.9661,474.9782 1422.1781,467.8172 1401.6451,453.4832 C1381.1331,439.1492 1370.8561,418.6792 1370.8561,392.0622 L1370.8561,386.6002 L1451.2621,386.6002 C1451.5521,397.0652 1454.6911,405.4272 1460.6631,411.6822 C1466.6661,417.9432 1474.6391,421.0642 1484.6181,421.0642 C1492.8921,421.0642 1500.0221,418.7422 1506.0071,414.0732 C1511.9841,409.4042 1514.9791,403.6662 1514.9791,396.8322 C1514.9791,388.8722 1510.1971,382.3282 1500.6581,377.2192 C1491.0991,372.1022 1477.4891,366.8102 1459.8201,361.3432 C1458.6751,360.8952 1457.3151,360.4932 1455.7551,360.1592 C1454.1871,359.8202 1452.6901,359.2982 1451.2621,358.6112 C1425.3111,350.1982 1406.2901,340.3132 1394.1511,328.9362 C1382.0381,317.5592 1375.9851,303.6782 1375.9851,287.2992 C1375.9851,273.4242 1381.0441,260.7952 1391.1691,249.4252 C1401.2931,238.0482 1414.8281,229.1122 1431.8061,222.6372 C1448.7641,216.1502 1466.9491,212.9092 1486.3361,212.9092 C1506.5731,212.9092 1525.2491,216.4462 1542.3581,223.4932 C1559.4551,230.5342 1572.0901,239.4762 1580.2071,250.2802 C1588.3311,261.0852 1592.5401,274.7832 1592.8241,291.3952 L1512.8471,291.3952 C1511.1291,282.5232 1507.9881,276.2122 1503.4321,272.4552 C1498.8711,268.7052 1492.4591,266.8232 1484.2031,266.8232"></path>
  <polygon fill="#CD202C" points="1789.6006 217.6875 1789.6006 274.3265 1691.2296 274.3265 1691.2296 313.5795 1786.6046 313.5795 1786.6046 370.2235 1691.2296 370.2235 1691.2296 413.5535 1789.6006 413.5535 1789.6006 470.2105 1613.8136 470.2105 1613.8136 217.6875"></polygon>
  <path fill="#0F2538" d="M1137.5376,582.5928 C1143.7186,582.5928 1147.8376,582.0768 1151.7856,580.5318 C1160.5406,577.4428 1166.2056,569.3738 1166.2056,559.5898 C1166.2056,549.8048 1160.7126,541.9078 1151.6136,538.8188 C1147.1506,537.2738 1142.5166,536.5868 1135.6496,536.5868 L1122.6026,536.5868 L1122.6026,582.5928 L1137.5376,582.5928 Z M1122.6026,638.7258 L1108.1836,638.7258 L1108.1836,524.2278 L1138.7396,524.2278 C1165.8616,524.2278 1180.7966,536.5868 1180.7966,559.2458 C1180.7966,570.5758 1176.3336,580.7038 1168.6086,587.0558 C1161.9136,592.3768 1152.9876,594.9518 1140.2846,594.9518 L1122.6026,594.9518 L1122.6026,638.7258 Z"></path>
  <polygon fill="#0F2538" points="1212.5522 638.7256 1198.1332 638.7256 1198.1332 524.2276 1212.5522 524.2276 1212.5522 575.7256 1268.3422 575.7256 1268.3422 524.2276 1282.7622 524.2276 1282.7622 638.7256 1268.3422 638.7256 1268.3422 588.0856 1212.5522 588.0856"></polygon>
  <polygon fill="#0F2538" points="1311.598 638.726 1326.017 638.726 1326.017 524.228 1311.598 524.228"></polygon>
  <path fill="#0F2538" d="M1360.521,607.998 C1361.208,621.045 1368.246,627.911 1380.777,627.911 C1393.652,627.911 1402.75,620.015 1402.75,608.514 C1402.75,598.557 1397.6,593.922 1379.576,587.914 C1366.014,583.279 1361.551,581.047 1356.401,576.412 C1350.565,571.091 1347.475,563.538 1347.475,554.783 C1347.475,535.386 1361.379,522.168 1381.635,522.168 C1401.891,522.168 1415.11,535.042 1415.625,554.955 L1401.205,554.955 C1401.034,549.118 1400.346,546.372 1398.459,543.11 C1395.197,538.132 1388.845,535.042 1381.463,535.042 C1370.134,535.042 1362.066,542.767 1362.066,553.753 C1362.066,559.246 1364.469,564.053 1368.589,566.971 C1372.194,569.546 1375.284,570.919 1386.958,575.039 C1399.145,579.331 1404.982,582.421 1409.617,587.398 C1414.594,592.721 1417.341,599.93 1417.341,607.655 C1417.341,627.395 1402.75,640.785 1381.292,640.785 C1366.701,640.785 1356.745,635.636 1350.737,625.336 C1347.99,620.701 1346.789,615.894 1346.789,610.401 L1346.789,607.998 L1360.521,607.998 Z"></path>
  <polygon fill="#0F2538" points="1453.0425 638.7256 1438.6235 638.7256 1438.6235 524.2276 1453.0425 524.2276 1453.0425 575.7256 1508.8325 575.7256 1508.8325 524.2276 1523.2525 524.2276 1523.2525 638.7256 1508.8325 638.7256 1508.8325 588.0856 1453.0425 588.0856"></polygon>
  <polygon fill="#0F2538" points="1566.1646 638.7256 1551.7456 638.7256 1551.7456 524.2276 1565.9936 524.2276 1608.3936 610.0586 1651.3096 524.2276 1665.3856 524.2276 1665.3856 638.7256 1650.9656 638.7256 1650.9656 554.9546 1608.3936 639.9266 1566.1646 554.7836"></polygon>
  <polygon fill="#0F2538" points="1706.9224 574.8672 1752.0694 574.8672 1752.0694 587.2272 1706.9224 587.2272 1706.9224 626.3662 1752.0694 626.3662 1752.0694 638.7252 1692.5034 638.7252 1692.5034 524.2272 1752.0694 524.2272 1752.0694 536.5872 1706.9224 536.5872"></polygon>
  <polygon fill="#0F2538" points="1760.5986 537.1475 1758.4986 537.1475 1758.4986 522.2765 1754.2496 522.2765 1754.2496 520.4765 1764.8226 520.4765 1764.8226 522.2765 1760.5986 522.2765"></polygon>
  <polygon fill="#0F2538" points="1768.9238 537.1475 1766.8248 537.1475 1766.8248 520.4765 1768.8998 520.4765 1775.0718 532.9735 1781.3208 520.4765 1783.3708 520.4765 1783.3708 537.1475 1781.2718 537.1475 1781.2718 524.9505 1775.0718 537.3225 1768.9238 524.9255"></polygon>
</svg>
