<svg width="130" height="130" viewBox="0 0 130 130" fill="none" xmlns="http://www.w3.org/2000/svg">
<rect width="130" height="130" rx="8" fill="#3DCC77" fill-opacity="0.1"/>
<path d="M25.3881 97.7028L102.77 97.66L102.744 51.78L25.3625 51.8228L25.3881 97.7028Z" fill="#3DCC77"/>
<path opacity="0.1" d="M25.3881 97.7028L102.77 97.66L102.744 51.78L25.3625 51.8228L25.3881 97.7028Z" fill="black"/>
<path opacity="0.1" d="M64.0676 76.8267L25.3621 51.8221L102.742 51.7776L64.0676 76.8267Z" fill="#263238"/>
<path d="M59.203 29.9052L25.3603 51.8221L102.74 51.7776L68.8729 29.901C67.4332 28.9706 65.7535 28.4758 64.0373 28.4765C62.3211 28.4773 60.6418 28.9735 59.203 29.9052Z" fill="#3DCC77"/>
<path opacity="0.2" d="M99.8664 51.7813L67.6877 30.9932C66.6021 30.2911 65.3353 29.9176 64.0408 29.9181C62.7464 29.9185 61.4799 30.2929 60.3947 30.9957L28.2317 51.818L99.8664 51.7813Z" fill="#263238"/>
<path d="M85.7608 49.8743L95.8728 53.6231L95.8751 56.2249L64.068 76.8267L32.2358 56.2631L32.2311 51.0595L85.7608 49.8743Z" fill="white"/>
<path d="M85.7578 49.8742L87.1997 55.4721L95.8699 53.623" fill="#E0E0E0"/>
<path d="M85.7578 49.8742L86.3381 54.4327L95.8699 53.623" fill="#F0F0F0"/>
<path d="M70.6571 72.5481L102.766 97.6611L25.3858 97.7024L57.4634 72.5536C59.3438 71.0803 61.6667 70.2788 64.0593 70.2777C66.4519 70.2767 68.7755 71.0763 70.6571 72.5481Z" fill="#3DCC77"/>
</svg>
