<svg xmlns="http://www.w3.org/2000/svg" viewBox="0 0 1111.17 176.39"><defs><style>.cls-1{fill:#101010;}.cls-2{fill:#3dcc77;}</style></defs><g id="katman_2" data-name="katman 2"><g id="Layer_1" data-name="Layer 1"><g id="_1958126002160" data-name=" 1958126002160"><path class="cls-1" d="M1034.71,140.87h76.46V126.21H1051.4V104.8h50V90.27h-50V70.14h58.75V55.48h-75.44Zm-257.86,0h16.7V116.14c22.33-20.08,44.47-40.29,67-60.66H838.92L793.55,96.64V55.48h-16.7Zm36.31-38,27.54,38H861l-27.38-38Zm-585.57,38H280c21,0,29.31-6.76,29.31-23.83,0-12-4-18.61-13.9-21.29V95.5c7.65-2.81,10.84-8.67,10.84-18.35,0-15.42-8-21.67-29.06-21.67H227.59Zm16.69-14.53V104.67h32.5c11.72,0,15.68,2.43,15.68,10.84s-4,10.83-14.92,10.83Zm0-35.94V70h30.46c11.22,0,14.78,2,14.78,10.07S285.83,90.4,274.1,90.4Zm95.94,50.47h71.11V126H356.91V55.48H340.22Zm88,0h17.21l7.26-17h43.59l7.13,17h18l-36.7-85.39H464.83l-36.58,85.39Zm30.33-31.23L474.51,70.9l15.93,38.74ZM586.12,142.4a84.74,84.74,0,0,0,28.68-4.47l-1.15-15c-10.07,3.18-17.46,4.46-27,4.46-22.43,0-29.69-7.14-29.69-29.19S564.2,69,586.63,69c9.56,0,16.82,1.28,27,4.46l1.15-15A84.24,84.24,0,0,0,586.12,54C552.73,54,540,65.93,540,98.17S552.73,142.4,586.12,142.4Zm57.32-1.53h16.7V116.14c22.33-20.08,44.47-40.29,67-60.66H705.5L660.14,96.64V55.48h-16.7Zm36.31-38,27.54,38h20.26l-27.38-38Zm205.91,38h16.7V55.48h-16.7Zm74.52,0h16.7V70.39h31.35V55.48h-79.4V70.39h31.35v70.48Z"/><path class="cls-2" d="M22.51,14.68c25,31.86,55,55.49,89.21,66.51A118.54,118.54,0,0,1,95.19,63.94h-.47a7.35,7.35,0,1,1,7.54-7.15,7.27,7.27,0,0,1-.45,2.35,118.42,118.42,0,0,0,23.83,25.77q4.87,1,9.85,1.76c-16.62-16-27.37-32.6-35.46-55.18a8.41,8.41,0,1,1,9.17-2.84,134.48,134.48,0,0,0,36.07,59.06,147.35,147.35,0,0,0,24.1-.26c13.47-1.25,21.46-1.53,29.2,11.46-18.7-.84-60.58,33.25-80.63,57.38a6.19,6.19,0,0,1,.23,1.56,6.51,6.51,0,1,1-5.77-6.33c17.75-18.63,52.49-48.32,74.86-55.88-4.27-3.74-11.18-3-16.42-2.26C112.29,100.62,54.11,73.77,11.73,23h-.25A11.48,11.48,0,1,1,23,11.48a11.67,11.67,0,0,1-.45,3.2Zm45.1,148.68a6.61,6.61,0,0,1,1.73.19c24.89-21.13,50.4-39.12,77.92-56.81-35.18-.09-81-7.93-116.39-29.52a9.74,9.74,0,1,1,7-9.44c34.84,25.06,87.3,35.94,127.8,32.8-32.67,22.31-61,40.33-91.41,68.44a5.52,5.52,0,0,1,0,.71,6.51,6.51,0,1,1-6.66-6.37Zm-6.67-23.09a6.47,6.47,0,0,1,3,.64c20-11.17,34.91-18.72,45.78-24.19a242.63,242.63,0,0,1-42.79-3.16,8.41,8.41,0,1,1,1.91-8.31c21.37,5.47,42.36,6.43,63,6-22,11.31-42.53,22.4-64.19,35.9a6.51,6.51,0,1,1-6.65-6.83Z"/></g></g></g></svg>